<svg xmlns="http://www.w3.org/2000/svg" width="64" height="64" viewBox="0 0 64 64" role="img" aria-label="台灣勞工權益計算器 favicon">
	<defs>
		<linearGradient id="favicon-bg" x1="8" x2="56" y1="6" y2="58" gradientUnits="userSpaceOnUse">
			<stop stop-color="#0f172a" />
			<stop offset="1" stop-color="#1e293b" />
		</linearGradient>
	</defs>
	<rect width="64" height="64" rx="18" fill="url(#favicon-bg)" />
	<rect x="14" y="10" width="36" height="44" rx="10" fill="#f8fafc" />
	<rect x="18" y="14" width="28" height="10" rx="5" fill="#f59e0b" />
	<rect x="19" y="29" width="8" height="8" rx="2.5" fill="#0f172a" />
	<rect x="28" y="29" width="8" height="8" rx="2.5" fill="#0f172a" />
	<rect x="37" y="29" width="8" height="8" rx="2.5" fill="#38bdf8" />
	<rect x="19" y="39" width="8" height="8" rx="2.5" fill="#0f172a" />
	<rect x="28" y="39" width="8" height="8" rx="2.5" fill="#0f172a" />
	<path fill="#38bdf8" d="M43.5 42.5h-2v-2a2 2 0 0 0-4 0v2h-2a2 2 0 0 0 0 4h2v2a2 2 0 0 0 4 0v-2h2a2 2 0 1 0 0-4Z" />
</svg>